#!OML:ASF E:\emotionWalksFemale\Project 1\Capture day 1\Session 1\Female1.ASF
:FULLY-SPECIFIED
:DEGREES
112
root 8.97658 15.2376 21.9952 194.354 0.606402 -178.848
lowerback 18.0028 3.70224 1.17099
upperback -2.60389 5.02366 -1.6825
thorax -12.7841 2.17812 -3.97122
lowerneck -6.73121 -5.77609 -10.7183
upperneck -10.0681 -7.28174 12.5414
head -0.984257 -3.85885 5.43613
rclavicle 8.95649e-014 -2.97929e-014
rhumerus -14.2087 23.8067 -55.9714
rradius 49.5678
rwrist 7.76377
rhand 2.88099 -55.0515
rfingers 7.12502
rthumb 28.3468 -82.9257
lclavicle 8.95649e-014 -2.97929e-014
lhumerus -56.0307 15.8927 16.6
lradius 37.1362
lwrist 3.65961
lhand -6.43139 -20.5686
lfingers 7.12502
lthumb 19.4176 8.48189
rfemur -31.0998 -7.87448 27.3521
rtibia 37.1311
rfoot -23.3494 -27.2952
rtoes 11.0733
lfemur -33.9028 -7.24749 -16.4835
ltibia 38.6131
lfoot -23.4932 12.3856
ltoes -55.5175
113
root 8.99094 15.1986 22.0154 195.017 0.626905 -178.698
lowerback 17.9834 3.78278 1.414
upperback -2.51426 5.18947 -1.64341
thorax -12.6401 2.24537 -4.1018
lowerneck -6.27606 -5.75621 -11.1118
upperneck -11.145 -7.27108 12.8491
head -1.34446 -3.89939 5.64362
rclavicle -5.2212e-015 -1.72694e-014
rhumerus -13.943 23.8794 -54.9946
rradius 50.2733
rwrist 7.2592
rhand 3.95085 -55.3521
rfingers 7.12502
rthumb 29.3688 -83.0518
lclavicle -5.2212e-015 -1.72694e-014
lhumerus -55.9761 16.8658 15.832
lradius 36.9083
lwrist 3.44389
lhand -6.73006 -20.4134
lfingers 7.12502
lthumb 19.1304 8.66575
rfemur -32.4172 -8.07692 27.7482
rtibia 38.0265
rfoot -23.2044 -26.6049
rtoes 11.4116
lfemur -35.3837 -6.6768 -16.28
ltibia 39.8584
lfoot -23.9699 12.3488
ltoes -55.869
114
root 9.00487 15.156 22.0342 195.686 0.731104 -178.466
lowerback 17.7493 3.98985 1.83341
upperback -2.528 5.56335 -1.55447
thorax -12.4611 2.39954 -4.3179
lowerneck -5.10335 -5.82588 -11.7518
upperneck -12.3186 -7.40413 13.0759
head -1.82629 -4.00101 5.89214
rclavicle -5.55106e-014 1.68967e-015
rhumerus -14.1726 23.9749 -53.9824
rradius 50.9929
rwrist 6.73545
rhand 3.87459 -54.9271
rfingers 7.12502
rthumb 29.296 -82.6396
lclavicle -5.55106e-014 1.68967e-015
lhumerus -55.7786 17.804 15.2267
lradius 36.5181
lwrist 3.00474
lhand -7.4506 -20.2399
lfingers 7.12502
lthumb 18.4374 8.90635
rfemur -33.7811 -8.11931 28.1896
rtibia 39.0067
rfoot -23.3544 -26.0969
rtoes 11.3391
lfemur -36.8703 -5.99706 -16.0368
ltibia 41.1344
lfoot -24.3773 12.3724
ltoes -56.3502
115
root 9.02126 15.1106 22.0522 196.364 0.869812 -178.256
lowerback 18.0493 4.08951 2.09227
upperback -2.58123 5.75446 -1.58608
thorax -12.6545 2.45822 -4.58209
lowerneck -5.07465 -5.86694 -11.6952
upperneck -12.967 -7.49244 13.0575
head -2.01532 -4.07833 5.89954
rclavicle -3.26007e-014 1.17283e-014
rhumerus -13.9466 24.1447 -53.3216
rradius 51.476
rwrist 5.90242
rhand 3.62266 -54.9227
rfingers 7.12502
rthumb 29.0554 -82.6769
lclavicle -3.26007e-014 1.17283e-014
lhumerus -55.6737 18.942 14.2954
lradius 36.2204
lwrist 2.61301
lhand -8.25916 -19.8016
lfingers 7.12502
lthumb 17.6595 9.41642
rfemur -35.1773 -8.0719 28.6081
rtibia 40.0613
rfoot -23.7299 -25.575
rtoes 12.0565
lfemur -38.3422 -5.30624 -15.8293
ltibia 42.4191
lfoot -24.8227 12.2
ltoes -56.5287
116
root 9.03649 15.0634 22.0707 197.033 1.04151 -178.101
lowerback 18.1733 4.24885 2.28556
upperback -2.65944 6.01238 -1.58013
thorax -12.777 2.55655 -4.77151
lowerneck -4.50216 -5.88752 -11.8173
upperneck -13.813 -7.57404 13.0713
head -2.34276 -4.1531 5.97455
rclavicle -1.4064e-014 -6.95746e-015
rhumerus -13.8139 24.2743 -52.6416
rradius 51.7733
rwrist 5.23242
rhand 3.00225 -55.0933
rfingers 7.12502
rthumb 28.4627 -82.9481
lclavicle -1.4064e-014 -6.95746e-015
lhumerus -55.5743 19.9109 13.7795
lradius 36.0286
lwrist 1.98467
lhand -8.65102 -19.3992
lfingers 7.12502
lthumb 17.2823 9.8524
rfemur -36.5811 -8.02991 28.9825
rtibia 41.1718
rfoot -24.3314 -24.9494
rtoes 12.9825
lfemur -39.7844 -4.69592 -15.6844
ltibia 43.6844
lfoot -25.3297 11.9196
ltoes -56.3018
117
root 9.04888 15.0167 22.0852 197.693 1.28686 -178.033
lowerback 18.3025 4.32155 2.23989
upperback -2.38808 6.09352 -1.66683
thorax -12.5274 2.61065 -4.85768
lowerneck -5.55723 -5.88196 -11.1168
upperneck -14.1795 -7.6097 12.6989
head -2.32744 -4.21493 5.72199
rclavicle 5.97348e-014 -1.92821e-014
rhumerus -12.7556 24.0608 -52.0069
rradius 51.7068
rwrist 4.75504
rhand 1.01041 -54.4226
rfingers 7.12502
rthumb 26.5578 -82.5806
lclavicle 5.97348e-014 -1.92821e-014
lhumerus -55.2766 21.7107 13.293
lradius 35.6741
lwrist 1.06274
lhand -8.8948 -19.4777
lfingers 7.12502
lthumb 17.0477 9.79433
rfemur -37.9753 -7.97553 29.242
rtibia 42.3123
rfoot -24.8348 -24.366
rtoes 13.5138
lfemur -41.1642 -4.12484 -15.6827
ltibia 44.889
lfoot -25.6819 11.8769
ltoes -56.1325
118
root 9.06237 14.9713 22.0928 198.306 1.58826 -178.02
lowerback 18.5901 4.1869 1.8527
upperback -1.47525 5.84688 -1.75608
thorax -11.7005 2.57834 -4.6377
lowerneck -9.66629 -5.77419 -9.84169
upperneck -13.7412 -7.52755 12.0768
head -1.65084 -4.22813 5.17604
rclavicle 4.3832e-014 2.5842e-015
rhumerus -9.95899 23.2914 -51.1388
rradius 51.3204
rwrist 4.32603
rhand -0.387595 -53.7338
rfingers 7.12502
rthumb 25.2191 -82.0873
lclavicle 4.3832e-014 2.5842e-015
lhumerus -55.0511 25.2751 12.4825
lradius 35.0603
lwrist -0.0631309
lhand -9.22801 -19.8622
lfingers 7.12502
lthumb 16.7269 9.43718
rfemur -39.3249 -7.96789 29.5009
rtibia 43.4368
rfoot -24.6381 -24.3225
rtoes 11.6707
lfemur -42.411 -3.4977 -15.7854
ltibia 46.0192
lfoot -25.9664 11.8383
ltoes -55.9615
119
root 9.07802 14.9293 22.1027 198.928 1.85438 -177.934
lowerback 18.5428 4.39519 1.9607
upperback -1.59875 6.14067 -1.75967
thorax -11.7779 2.70146 -4.78444
lowerneck -8.69024 -5.76045 -9.96382
upperneck -14.6465 -7.56476 12.0495
head -2.06423 -4.28516 5.25122
rclavicle 6.33129e-014 1.43125e-014
rhumerus -10.4683 23.2616 -50.857
rradius 51.4592
rwrist 3.84595
rhand -0.975834 -53.2875
rfingers 7.12502
rthumb 24.6554 -81.7192
lclavicle 6.33129e-014 1.43125e-014
lhumerus -54.5831 25.9926 12.763
lradius 34.6616
lwrist -0.809704
lhand -9.54463 -20.1429
lfingers 7.12502
lthumb 16.4221 9.18193
rfemur -40.657 -7.86669 29.8382
rtibia 44.5306
rfoot -24.6146 -24.2317
rtoes 10.8731
lfemur -43.6504 -2.82697 -15.792
ltibia 47.1079
lfoot -26.384 11.5922
ltoes -55.6834
120
root 9.09267 14.8885 22.1144 199.467 2.07612 -177.815
lowerback 18.7755 4.55449 2.21178
upperback -1.80015 6.40261 -1.79748
thorax -12.0876 2.78539 -5.07672
lowerneck -7.75122 -5.76238 -10.0028
upperneck -15.4006 -7.63174 11.901
head -2.43567 -4.34549 5.27082
rclavicle -9.44227e-014 2.88238e-014
rhumerus -11.0872 23.2978 -50.7819
rradius 51.4608
rwrist 3.00151
rhand -0.882816 -53.3617
rfingers 7.12502
rthumb 24.7445 -81.7813
lclavicle -9.44227e-014 2.88238e-014
lhumerus -54.0876 26.6308 13.1373
lradius 34.3617
lwrist -1.65236
lhand -9.54824 -20.421
lfingers 7.12502
lthumb 16.4186 8.90417
rfemur -41.8446 -7.66694 30.1333
rtibia 45.5981
rfoot -25.0763 -23.9653
rtoes 11.3357
lfemur -44.7768 -2.16854 -15.7851
ltibia 48.1781
lfoot -26.703 11.8896
ltoes -56.0494
121
root 9.10586 14.8358 22.1192 199.796 2.38501 -177.748
lowerback 19.787 4.52839 2.15161
upperback -1.92676 6.3609 -1.892
thorax -12.8181 2.72553 -5.25895
lowerneck -8.78611 -5.66381 -9.38
upperneck -15.065 -7.55179 11.4838
head -2.2307 -4.31745 4.99705
rclavicle 3.01159e-014 1.19271e-015
rhumerus -10.94 23.2233 -51.0285
rradius 51.2094
rwrist 2.29668
rhand -0.61673 -53.5187
rfingers 7.12502
rthumb 24.9995 -81.903
lclavicle 3.01159e-014 1.19271e-015
lhumerus -53.8671 27.761 13.1435
lradius 34.0816
lwrist -2.36384
lhand -9.28159 -20.396
lfingers 7.12502
lthumb 16.6754 8.90777
rfemur -42.8377 -7.55973 30.4106
rtibia 46.6701
rfoot -24.8846 -24.2861
rtoes 8.4416
lfemur -45.6099 -1.48302 -15.8911
ltibia 49.2622
lfoot -26.9636 12.5762
ltoes -56.6252
